<?xml version="1.0" encoding="utf-8"?>
<!-- Generator: Adobe Illustrator 17.1.0, SVG Export Plug-In . SVG Version: 6.00 Build 0)  -->
<!DOCTYPE svg PUBLIC "-//W3C//DTD SVG 1.1//EN" "http://www.w3.org/Graphics/SVG/1.1/DTD/svg11.dtd">
<svg version="1.1" id="Шар_1" xmlns="http://www.w3.org/2000/svg" xmlns:xlink="http://www.w3.org/1999/xlink" x="0px" y="0px"
	 viewBox="0 0 325.6 92.4" enable-background="new 0 0 325.6 92.4" xml:space="preserve">
<g>
	<path fill-rule="evenodd" clip-rule="evenodd" fill="#014183" d="M46.2,92.4c25.5,0,46.2-20.7,46.2-46.2C92.4,20.7,71.7,0,46.2,0
		C20.7,0,0,20.7,0,46.2C0,56,3,65,8.1,72.4c1.6,2.3,3.3,3.8,4.4,6.3c0.4,1,0.7,2.1,0.5,2.8c-0.4,1.3-5.4-1-6.7,0.9
		c-1.5,2.3,3.4,6.7,5.3,8.3c-1-2-2.4-4-1.5-4.7c0.9-0.6,3.2,0.4,5.6,1.4c3.4,1.5,8.5,3.9,8.5-1.1c-0.1-1.1-0.1-1.5-0.3-2.7
		c-0.3-1.9,0.1-2.1,0.5-2c0.6,0.2,1.3,1.4,2,2.6c0.6,1,1.1,2,1.6,2.5c0.6,0.7,1.3,1.3,2.3,2c2,1.4,4.5,2.1,6.5,2.6
		C41,92.4,41.7,92.4,46.2,92.4L46.2,92.4z"/>
	<polygon fill="#E0ECF6" points="26.8,61.7 28.8,68 64.4,68 67,57.1 45.9,57.1 65.6,30.7 63.7,24.5 28,24.5 28,24.5 25.4,35.3 
		46.5,35.3 26.8,61.7 	"/>
	<path fill="#014183" d="M312,62.6c12.9,0,13.6-10.1,13.6-13.4V30.8h-8.6V49c0,1.9-0.4,6.1-4.9,6.1c-4.6,0-4.9-4.2-4.9-6.1V30.8
		h-8.6v18.4C298.4,52.5,299.1,62.6,312,62.6L312,62.6z"/>
	<path fill="#014183" d="M270.3,61.7h8.6V51.5l6.5,10.2H296l-8.6-12.3c2.9-1,6.5-3.4,6.5-9.3c0-1.4-0.4-9.3-10.7-9.3h-12.8V61.7
		L270.3,61.7z M279,44.7v-7.1h2.1c3.1,0,4.1,1.8,4.1,3.5c0,1.8-1,3.6-4.1,3.6H279L279,44.7z"/>
	<path fill="#014183" d="M255.8,58c0,2.5,2,4.5,4.5,4.5c2.5,0,4.5-2,4.5-4.5c0-2.5-2-4.5-4.5-4.5C257.8,53.5,255.8,55.5,255.8,58
		L255.8,58z"/>
	<path fill="#014183" d="M237.5,62.6c11.3,0,16.6-8.1,16.6-16.3c0-8.2-5.3-16.3-16.6-16.3c-11.3,0-16.6,8.1-16.6,16.3
		C220.9,54.5,226.2,62.6,237.5,62.6L237.5,62.6z M237.5,55.1c-4,0-7.7-3-7.7-8.9c0-6,3.7-8.9,7.7-8.9c4,0,7.7,3,7.7,8.9
		C245.1,52.2,241.5,55.1,237.5,55.1L237.5,55.1z"/>
	<path fill="#014183" d="M193.8,61.7h8.6V51.5l6.5,10.2h10.4l-8.6-12.3c2.9-1,6.5-3.4,6.5-9.3c0-1.4-0.4-9.3-10.7-9.3h-12.8V61.7
		L193.8,61.7z M202.5,44.7v-7.1h2.1c3.1,0,4.1,1.8,4.1,3.5c0,1.8-1,3.6-4.1,3.6H202.5L202.5,44.7z"/>
	<polygon fill="#014183" points="168.1,61.7 187.7,61.7 189.5,54.3 176.7,54.3 176.7,49.3 185.7,49.3 185.7,42.5 176.7,42.5 
		176.7,38.2 189.4,38.2 187.5,30.8 168.1,30.8 168.1,61.7 	"/>
	<path fill="#014183" d="M119.6,62.6c11.3,0,16.6-8.1,16.6-16.3c0-8.2-5.3-16.3-16.6-16.3c-11.3,0-16.6,8.1-16.6,16.3
		C103,54.5,108.3,62.6,119.6,62.6L119.6,62.6z M119.6,55.1c-4,0-7.7-3-7.7-8.9c0-6,3.7-8.9,7.7-8.9c4,0,7.7,3,7.7,8.9
		C127.3,52.2,123.6,55.1,119.6,55.1L119.6,55.1z"/>
	<polygon fill="#014183" points="136.5,57.2 137.8,61.7 163.1,61.7 164.9,54.3 149.7,54.3 164,35.3 161.8,30.8 138.2,30.8 
		136.8,38.5 150.9,38.5 136.5,57.2 	"/>
</g>
</svg>
