<?xml version="1.0" encoding="utf-8"?>
<!-- Generator: Adobe Illustrator 17.1.0, SVG Export Plug-In . SVG Version: 6.00 Build 0)  -->
<!DOCTYPE svg PUBLIC "-//W3C//DTD SVG 1.1//EN" "http://www.w3.org/Graphics/SVG/1.1/DTD/svg11.dtd">
<svg version="1.1" id="Шар_1" xmlns="http://www.w3.org/2000/svg" xmlns:xlink="http://www.w3.org/1999/xlink" x="0px" y="0px"
	 viewBox="0 0 92.4 92.4" enable-background="new 0 0 92.4 92.4" xml:space="preserve">
<g>
	<path fill-rule="evenodd" clip-rule="evenodd" fill="#FFFFFF" d="M46.2,92.4c25.5,0,46.2-20.7,46.2-46.2C92.4,20.7,71.7,0,46.2,0
		C20.7,0,0,20.7,0,46.2C0,56,3,65,8.1,72.4c1.6,2.3,3.3,3.8,4.4,6.3c0.4,1,0.7,2.1,0.5,2.8c-0.4,1.3-5.4-1-6.7,0.9
		c-1.5,2.3,3.4,6.7,5.3,8.3c-1-2-2.4-4-1.5-4.7c0.9-0.6,3.2,0.4,5.6,1.4c3.4,1.5,8.5,3.9,8.5-1.1c-0.1-1.1-0.1-1.5-0.3-2.7
		c-0.3-1.9,0.1-2.1,0.5-2c0.6,0.2,1.3,1.4,2,2.6c0.6,1,1.1,2,1.6,2.5c0.6,0.7,1.3,1.3,2.3,2c2,1.4,4.5,2.1,6.5,2.6
		C41,92.4,41.7,92.4,46.2,92.4L46.2,92.4z"/>
	<polygon fill="#014183" points="26.8,61.7 28.8,68 64.4,68 67,57.1 45.9,57.1 65.6,30.7 63.7,24.5 28,24.5 28,24.5 25.4,35.3 
		46.5,35.3 26.8,61.7 	"/>
</g>
</svg>
